# xmcd
#
# Track frame offsets:
#        150
#        28582
#        50130
#        68477
#        90380
#        123535
#        145687
#        174772
#        207512
#
# Disc length: 3861 seconds
#
# Revision: 0
# Processed by: cddbd v1.5.1PL0 Copyright (c) Steve Scherf et al.
# Submitted via: ExactAudioCopy v0.95a5
#
DISCID=760f1309
DTITLE=Ponga - Ponga
DYEAR=1900
DGENRE=A Cappella
TTITLE0=Pimba
TTITLE1=Pick Up The Piece Of Saturn
TTITLE2=Naugahide
TTITLE3=Blowtorch
TTITLE4=Awesome Wells
TTITLE5=Ponga Amore
TTITLE6=Liberace In Space
TTITLE7=Bookin
TTITLE8=Yma(Japan Ver.)
EXTD=
EXTT0=
EXTT1=
EXTT2=
EXTT3=
EXTT4=
EXTT5=
EXTT6=
EXTT7=
EXTT8=
PLAYORDER=
